<svg id="visual" viewBox="0 0 900 600" width="900" height="600" xmlns="http://www.w3.org/2000/svg" xmlns:xlink="http://www.w3.org/1999/xlink" version="1.1"><rect x="0" y="0" width="900" height="600" fill="#abb4bb"></rect><defs><linearGradient id="grad1_0" x1="33.3%" y1="100%" x2="100%" y2="0%"><stop offset="20%" stop-color="#9c66ed" stop-opacity="1"></stop><stop offset="80%" stop-color="#9c66ed" stop-opacity="1"></stop></linearGradient></defs><defs><linearGradient id="grad1_1" x1="33.3%" y1="100%" x2="100%" y2="0%"><stop offset="20%" stop-color="#9c66ed" stop-opacity="1"></stop><stop offset="80%" stop-color="#abb4bb" stop-opacity="1"></stop></linearGradient></defs><defs><linearGradient id="grad2_0" x1="0%" y1="100%" x2="66.7%" y2="0%"><stop offset="20%" stop-color="#9c66ed" stop-opacity="1"></stop><stop offset="80%" stop-color="#9c66ed" stop-opacity="1"></stop></linearGradient></defs><defs><linearGradient id="grad2_1" x1="0%" y1="100%" x2="66.7%" y2="0%"><stop offset="20%" stop-color="#abb4bb" stop-opacity="1"></stop><stop offset="80%" stop-color="#9c66ed" stop-opacity="1"></stop></linearGradient></defs><g transform="translate(900, 600)"><path d="M-297.5 0C-263.5 -23 -229.6 -45.9 -217.8 -70.8C-206 -95.6 -216.2 -122.3 -215.2 -156.4C-214.2 -190.4 -201.8 -231.7 -174.8 -240.6C-147.9 -249.6 -106.4 -226.1 -74.8 -230.2C-43.2 -234.2 -21.6 -265.8 0 -297.5L0 0Z" fill="#749ae3"></path><path d="M-148.7 0C-131.8 -11.5 -114.8 -23 -108.9 -35.4C-103 -47.8 -108.1 -61.2 -107.6 -78.2C-107.1 -95.2 -100.9 -115.9 -87.4 -120.3C-73.9 -124.8 -53.2 -113 -37.4 -115.1C-21.6 -117.1 -10.8 -132.9 0 -148.7L0 0Z" fill="#9c66ed"></path></g><g transform="translate(0, 0)"><path d="M297.5 0C290.7 30 284 60 275.8 89.6C267.6 119.2 257.9 148.3 240.6 174.8C223.4 201.4 198.7 225.3 169.9 233.8C141 242.3 108.1 235.4 79.1 243.5C50.1 251.5 25.1 274.5 0 297.5L0 0Z" fill="#749ae3"></path><path d="M148.7 0C145.4 15 142 30 137.9 44.8C133.8 59.6 128.9 74.2 120.3 87.4C111.7 100.7 99.4 112.6 84.9 116.9C70.5 121.2 54.1 117.7 39.6 121.7C25.1 125.8 12.5 137.2 0 148.7L0 0Z" fill="#9c66ed"></path></g></svg>