<svg id="visual" viewBox="0 0 900 600" width="900" height="600" xmlns="http://www.w3.org/2000/svg" xmlns:xlink="http://www.w3.org/1999/xlink" version="1.1"><g stroke-width="1" stroke-linejoin="bevel"><path d="M494 322L401 284L388 366Z" fill="#a62997" stroke="#a62997"></path><path d="M388 366L465 420L494 322Z" fill="#bb5bab" stroke="#bb5bab"></path><path d="M401 284L326 316L388 366Z" fill="#ce85c0" stroke="#ce85c0"></path><path d="M326 316L336 380L388 366Z" fill="#d799ca" stroke="#d799ca"></path><path d="M388 366L416 521L465 420Z" fill="#f8eaf4" stroke="#f8eaf4"></path><path d="M494 322L407 204L401 284Z" fill="#b144a1" stroke="#b144a1"></path><path d="M401 284L407 204L326 316Z" fill="#a62997" stroke="#a62997"></path><path d="M494 322L509 178L407 204Z" fill="#f8eaf4" stroke="#f8eaf4"></path><path d="M416 521L501 492L465 420Z" fill="#f0d6ea" stroke="#f0d6ea"></path><path d="M624 379L607 286L494 322Z" fill="#ce85c0" stroke="#ce85c0"></path><path d="M494 322L571 206L509 178Z" fill="#f0d6ea" stroke="#f0d6ea"></path><path d="M624 379L494 322L465 420Z" fill="#bb5bab" stroke="#bb5bab"></path><path d="M607 286L571 206L494 322Z" fill="#e0add5" stroke="#e0add5"></path><path d="M336 380L416 521L388 366Z" fill="#d799ca" stroke="#d799ca"></path><path d="M501 492L624 379L465 420Z" fill="#f0d6ea" stroke="#f0d6ea"></path><path d="M635 105L482 136L509 178Z" fill="#c470b5" stroke="#c470b5"></path><path d="M509 178L482 136L407 204Z" fill="#e8c2df" stroke="#e8c2df"></path><path d="M191 476L319 500L336 380Z" fill="#d799ca" stroke="#d799ca"></path><path d="M336 380L319 500L416 521Z" fill="#e0add5" stroke="#e0add5"></path><path d="M407 204L262 213L326 316Z" fill="#a62997" stroke="#a62997"></path><path d="M326 316L174 420L336 380Z" fill="#c470b5" stroke="#c470b5"></path><path d="M395 99L262 213L407 204Z" fill="#ce85c0" stroke="#ce85c0"></path><path d="M664 480L622 470L586 600Z" fill="#e8c2df" stroke="#e8c2df"></path><path d="M501 492L622 470L624 379Z" fill="#a62997" stroke="#a62997"></path><path d="M482 136L395 99L407 204Z" fill="#e0add5" stroke="#e0add5"></path><path d="M230 119L195 218L262 213Z" fill="#bb5bab" stroke="#bb5bab"></path><path d="M262 213L166 305L326 316Z" fill="#bb5bab" stroke="#bb5bab"></path><path d="M195 218L166 305L262 213Z" fill="#ffffff" stroke="#ffffff"></path><path d="M586 600L622 470L501 492Z" fill="#f0d6ea" stroke="#f0d6ea"></path><path d="M622 470L664 480L624 379Z" fill="#ce85c0" stroke="#ce85c0"></path><path d="M728 236L571 206L607 286Z" fill="#f0d6ea" stroke="#f0d6ea"></path><path d="M285 600L372 600L319 500Z" fill="#c470b5" stroke="#c470b5"></path><path d="M319 500L372 600L416 521Z" fill="#e0add5" stroke="#e0add5"></path><path d="M416 521L500 600L501 492Z" fill="#bb5bab" stroke="#bb5bab"></path><path d="M372 600L500 600L416 521Z" fill="#f8eaf4" stroke="#f8eaf4"></path><path d="M166 305L174 420L326 316Z" fill="#f8eaf4" stroke="#f8eaf4"></path><path d="M174 420L191 476L336 380Z" fill="#a62997" stroke="#a62997"></path><path d="M395 99L274 91L262 213Z" fill="#e8c2df" stroke="#e8c2df"></path><path d="M274 91L230 119L262 213Z" fill="#f0d6ea" stroke="#f0d6ea"></path><path d="M166 305L137 369L174 420Z" fill="#d799ca" stroke="#d799ca"></path><path d="M174 420L94 488L191 476Z" fill="#b144a1" stroke="#b144a1"></path><path d="M97 308L137 369L166 305Z" fill="#f0d6ea" stroke="#f0d6ea"></path><path d="M124 200L166 305L195 218Z" fill="#f8eaf4" stroke="#f8eaf4"></path><path d="M728 236L635 105L571 206Z" fill="#ce85c0" stroke="#ce85c0"></path><path d="M571 206L635 105L509 178Z" fill="#f8eaf4" stroke="#f8eaf4"></path><path d="M482 136L412 0L395 99Z" fill="#bb5bab" stroke="#bb5bab"></path><path d="M395 99L282 0L274 91Z" fill="#a62997" stroke="#a62997"></path><path d="M739 337L607 286L624 379Z" fill="#ffffff" stroke="#ffffff"></path><path d="M735 430L739 337L624 379Z" fill="#bb5bab" stroke="#bb5bab"></path><path d="M739 337L728 236L607 286Z" fill="#e0add5" stroke="#e0add5"></path><path d="M500 600L586 600L501 492Z" fill="#d799ca" stroke="#d799ca"></path><path d="M223 600L285 600L319 500Z" fill="#f0d6ea" stroke="#f0d6ea"></path><path d="M770 460L735 430L664 480Z" fill="#f0d6ea" stroke="#f0d6ea"></path><path d="M664 480L735 430L624 379Z" fill="#a62997" stroke="#a62997"></path><path d="M528 0L412 0L482 136Z" fill="#c470b5" stroke="#c470b5"></path><path d="M274 91L236 0L230 119Z" fill="#f8eaf4" stroke="#f8eaf4"></path><path d="M230 119L124 200L195 218Z" fill="#b144a1" stroke="#b144a1"></path><path d="M124 200L97 308L166 305Z" fill="#a62997" stroke="#a62997"></path><path d="M94 488L223 600L191 476Z" fill="#ce85c0" stroke="#ce85c0"></path><path d="M191 476L223 600L319 500Z" fill="#f8eaf4" stroke="#f8eaf4"></path><path d="M94 488L174 420L137 369Z" fill="#b144a1" stroke="#b144a1"></path><path d="M567 0L528 0L482 136Z" fill="#f0d6ea" stroke="#f0d6ea"></path><path d="M635 105L567 0L482 136Z" fill="#bb5bab" stroke="#bb5bab"></path><path d="M711 0L567 0L635 105Z" fill="#e8c2df" stroke="#e8c2df"></path><path d="M719 600L770 460L664 480Z" fill="#bb5bab" stroke="#bb5bab"></path><path d="M735 430L790 407L739 337Z" fill="#bb5bab" stroke="#bb5bab"></path><path d="M739 337L798 291L728 236Z" fill="#d799ca" stroke="#d799ca"></path><path d="M770 460L790 407L735 430Z" fill="#a62997" stroke="#a62997"></path><path d="M790 407L798 291L739 337Z" fill="#a62997" stroke="#a62997"></path><path d="M728 236L705 81L635 105Z" fill="#d799ca" stroke="#d799ca"></path><path d="M412 0L282 0L395 99Z" fill="#bb5bab" stroke="#bb5bab"></path><path d="M230 119L84 98L124 200Z" fill="#e8c2df" stroke="#e8c2df"></path><path d="M760 84L705 81L728 236Z" fill="#e8c2df" stroke="#e8c2df"></path><path d="M0 437L94 488L137 369Z" fill="#c470b5" stroke="#c470b5"></path><path d="M282 0L236 0L274 91Z" fill="#f0d6ea" stroke="#f0d6ea"></path><path d="M586 600L719 600L664 480Z" fill="#ffffff" stroke="#ffffff"></path><path d="M900 368L798 291L790 407Z" fill="#c470b5" stroke="#c470b5"></path><path d="M828 163L760 84L728 236Z" fill="#ce85c0" stroke="#ce85c0"></path><path d="M705 81L711 0L635 105Z" fill="#a62997" stroke="#a62997"></path><path d="M0 208L0 311L97 308Z" fill="#ffffff" stroke="#ffffff"></path><path d="M97 308L0 437L137 369Z" fill="#e0add5" stroke="#e0add5"></path><path d="M101 0L84 98L230 119Z" fill="#e8c2df" stroke="#e8c2df"></path><path d="M719 600L763 600L770 460Z" fill="#e0add5" stroke="#e0add5"></path><path d="M798 291L828 163L728 236Z" fill="#d799ca" stroke="#d799ca"></path><path d="M900 193L828 163L798 291Z" fill="#a62997" stroke="#a62997"></path><path d="M900 299L798 291L900 368Z" fill="#a62997" stroke="#a62997"></path><path d="M837 0L711 0L760 84Z" fill="#e8c2df" stroke="#e8c2df"></path><path d="M760 84L711 0L705 81Z" fill="#bb5bab" stroke="#bb5bab"></path><path d="M0 208L97 308L124 200Z" fill="#ce85c0" stroke="#ce85c0"></path><path d="M0 311L0 437L97 308Z" fill="#f0d6ea" stroke="#f0d6ea"></path><path d="M94 488L74 600L223 600Z" fill="#ffffff" stroke="#ffffff"></path><path d="M0 504L74 600L94 488Z" fill="#d799ca" stroke="#d799ca"></path><path d="M84 98L0 208L124 200Z" fill="#a62997" stroke="#a62997"></path><path d="M900 368L790 407L900 524Z" fill="#f0d6ea" stroke="#f0d6ea"></path><path d="M900 524L790 407L770 460Z" fill="#ce85c0" stroke="#ce85c0"></path><path d="M0 437L0 504L94 488Z" fill="#b144a1" stroke="#b144a1"></path><path d="M236 0L101 0L230 119Z" fill="#b144a1" stroke="#b144a1"></path><path d="M84 98L0 65L0 208Z" fill="#ffffff" stroke="#ffffff"></path><path d="M900 299L900 193L798 291Z" fill="#ce85c0" stroke="#ce85c0"></path><path d="M900 88L837 0L760 84Z" fill="#f8eaf4" stroke="#f8eaf4"></path><path d="M763 600L900 524L770 460Z" fill="#f8eaf4" stroke="#f8eaf4"></path><path d="M101 0L0 65L84 98Z" fill="#f8eaf4" stroke="#f8eaf4"></path><path d="M0 504L0 600L74 600Z" fill="#ffffff" stroke="#ffffff"></path><path d="M900 88L760 84L828 163Z" fill="#e8c2df" stroke="#e8c2df"></path><path d="M900 193L900 88L828 163Z" fill="#e0add5" stroke="#e0add5"></path><path d="M763 600L900 600L900 524Z" fill="#ffffff" stroke="#ffffff"></path><path d="M101 0L0 0L0 65Z" fill="#ce85c0" stroke="#ce85c0"></path><path d="M900 88L900 0L837 0Z" fill="#b144a1" stroke="#b144a1"></path></g></svg>